<?xml version="1.0" encoding="UTF-8" standalone="no"?>
<svg xmlns:dc="http://purl.org/dc/elements/1.1/" xmlns:cc="http://creativecommons.org/ns#" xmlns:rdf="http://www.w3.org/1999/02/22-rdf-syntax-ns#" xmlns:svg="http://www.w3.org/2000/svg" xmlns="http://www.w3.org/2000/svg" xmlns:sodipodi="http://sodipodi.sourceforge.net/DTD/sodipodi-0.dtd" xmlns:inkscape="http://www.inkscape.org/namespaces/inkscape" version="1.1" x="0px" y="0px" viewBox="0 0 100 125" enable-background="new 0 0 100 100" xml:space="preserve" id="svg12" sodipodi:docname="boy.svg" inkscape:version="0.92.1 r15371"><metadata id="metadata18"><rdf:RDF><cc:Work rdf:about=""><dc:format>image/svg+xml</dc:format><dc:type rdf:resource="http://purl.org/dc/dcmitype/StillImage"/><dc:title/></cc:Work></rdf:RDF></metadata><defs id="defs16"/><sodipodi:namedview pagecolor="#ffffff" bordercolor="#666666" borderopacity="1" objecttolerance="10" gridtolerance="10" guidetolerance="10" inkscape:pageopacity="0" inkscape:pageshadow="2" inkscape:window-width="640" inkscape:window-height="480" id="namedview14" showgrid="false" inkscape:zoom="1.888" inkscape:cx="50" inkscape:cy="62.5" inkscape:window-x="0" inkscape:window-y="0" inkscape:window-maximized="0" inkscape:current-layer="svg12"/><g id="g6" transform="matrix(1.0727448,0,0,1,-4.714415,11.122881)"><circle stroke-miterlimit="10" cx="49.160999" cy="23.903" r="8.3129997" id="circle2" style="stroke:#000000;stroke-miterlimit:10"/><path stroke-miterlimit="10" d="m 64.208,56.289 -7.318,-20.9 c -0.256,-0.73 -0.909,-1.204 -1.632,-1.276 -2.797,-1.412 -8.811,-1.494 -11.852,-0.21 -0.718,0.063 -1.354,0.525 -1.624,1.223 -0.046,0.079 -0.09,0.159 -0.121,0.242 -0.055,0.146 -0.104,0.373 -0.146,0.65 l -5.76,20.607 c -0.287,1.025 0.313,2.089 1.338,2.376 l 0.139,0.039 c 1.025,0.286 2.089,-0.313 2.375,-1.338 L 41.31,51.61 c 0.131,6.249 0.352,11.89 0.352,11.89 h 2.248 c -0.153,0.276 -0.409,0.59 -0.409,0.928 v 22.145 c 0,1.064 1.024,1.928 2.089,1.928 h 0.145 c 1.064,0 1.767,-0.863 1.767,-1.928 V 64.428 c 0,-0.338 0.066,-0.651 -0.087,-0.928 h 3.496 c -0.153,0.276 -0.409,0.59 -0.409,0.928 v 22.145 c 0,1.064 1.024,1.928 2.089,1.928 h 0.145 c 1.064,0 1.767,-0.863 1.767,-1.928 V 64.428 c 0,-0.338 0.066,-0.651 -0.087,-0.928 h 2.248 c 0,0 0.314,-7.989 0.414,-15.478 l 3.357,9.588 c 0.353,1.005 1.453,1.535 2.457,1.184 l 0.136,-0.048 c 1.002,-0.352 1.533,-1.452 1.18,-2.457 z" id="path4" inkscape:connector-curvature="0" style="stroke:#000000;stroke-miterlimit:10"/></g></svg>