<?xml version="1.0" encoding="UTF-8" standalone="no"?>
<!-- Created with Inkscape (http://www.inkscape.org/) -->

<svg
   xmlns:dc="http://purl.org/dc/elements/1.1/"
   xmlns:cc="http://creativecommons.org/ns#"
   xmlns:rdf="http://www.w3.org/1999/02/22-rdf-syntax-ns#"
   xmlns:svg="http://www.w3.org/2000/svg"
   xmlns="http://www.w3.org/2000/svg"
   xmlns:sodipodi="http://sodipodi.sourceforge.net/DTD/sodipodi-0.dtd"
   xmlns:inkscape="http://www.inkscape.org/namespaces/inkscape"
   width="728px"
   height="90px"
   id="svg2985"
   version="1.1"
   inkscape:version="0.48.4 r9939"
   sodipodi:docname="ccccm-siteasessment.svg">
  <defs
     id="defs2987" />
  <sodipodi:namedview
     id="base"
     pagecolor="#ffffff"
     bordercolor="#666666"
     borderopacity="1.0"
     inkscape:pageopacity="0.0"
     inkscape:pageshadow="2"
     inkscape:zoom="0.75"
     inkscape:cx="676.66667"
     inkscape:cy="45"
     inkscape:document-units="px"
     inkscape:current-layer="layer1"
     showgrid="false"
     inkscape:window-width="1600"
     inkscape:window-height="849"
     inkscape:window-x="0"
     inkscape:window-y="26"
     inkscape:window-maximized="1" />
  <metadata
     id="metadata2990">
    <rdf:RDF>
      <cc:Work
         rdf:about="">
        <dc:format>image/svg+xml</dc:format>
        <dc:type
           rdf:resource="http://purl.org/dc/dcmitype/StillImage" />
        <dc:title></dc:title>
      </cc:Work>
    </rdf:RDF>
  </metadata>
  <g
     id="layer1"
     inkscape:label="Layer 1"
     inkscape:groupmode="layer">
    <path
       style="fill:#2a87cf;fill-opacity:0.94117647"
       d="m 570.22274,79.646051 c 0.80995,-0.348105 1.27535,-0.348105 0.73657,0 -0.24315,0.157099 -0.64088,0.278378 -0.88406,0.269458 -0.29143,-0.01067 -0.24128,-0.102464 0.14749,-0.269458 z m 73.63476,-7.29287 -5.34059,-0.08728 -0.77414,-1.72478 c -0.87031,-1.939302 -0.96173,-2.749172 -0.36665,-3.24322 0.29957,-0.248546 0.36838,-0.827213 0.2596,-2.182972 -0.19522,-2.430679 0.351,-7.945251 1.43559,-14.495386 1.75887,-10.621292 2.10875,-15.548689 1.38362,-19.484056 -0.29902,-1.622729 -0.28219,-1.940066 0.12692,-2.392016 0.43313,-0.478502 0.42418,-0.725885 -0.10658,-3.025356 -0.99024,-4.290087 -1.33459,-4.959306 -2.73609,-5.319392 -5.05216,-1.298228 -6.63267,-2.905408 -5.78011,-5.87829 0.5088,-1.773217 0.37287,-3.153042 -0.36041,-3.666648 -0.3601,-0.252303 -0.96912,-0.458739 -1.3533,-0.458739 l -0.69871,0 0.21174,4.105596 0.21145,4.105634 -0.8472,0.796162 c -1.40665,1.322228 -4.75169,2.780007 -6.37859,2.780007 -1.54505,0 -2.98455,-0.586342 -3.27065,-1.332343 -0.0994,-0.258578 0.0829,-1.253869 0.40632,-2.211759 0.78119,-2.319088 0.77558,-4.393148 -0.0138,-5.24088 -0.73237,-0.786169 -1.21764,-0.813866 -1.85846,-0.10602 -0.59766,0.66073 -0.6196,2.164026 -0.0538,3.734024 1.01602,2.820154 0.36662,4.299221 -2.50112,5.696005 -2.1543,1.049341 -2.43679,2.010208 -1.50919,5.135 1.97403,6.648568 2.08412,22.664994 0.20628,29.912152 l -0.46611,1.799678 1.52355,2.008708 c 0.83816,1.104758 1.93345,2.870622 2.43396,3.924121 0.78214,1.645142 0.91065,2.248179 0.91065,4.272933 l 0,2.357489 -2.24651,0.08549 c -4.52753,0.17211 -8.36789,-1.215777 -10.04023,-3.628576 -1.37192,-1.97951 -1.71096,-4.029518 -1.71096,-10.351526 0,-3.460166 0.11485,-5.73798 0.29471,-5.849186 0.18292,-0.112966 0.29465,-2.785924 0.29465,-7.03988 0,-7.624747 -0.20831,-6.626948 2.32891,-11.146148 l 0.94551,-1.683661 -0.92697,-4.342291 c -1.28764,-6.032421 -3.23106,-11.29112 -4.64512,-12.570096 -0.72319,-0.653967 -1.37087,-0.341116 -2.39847,1.158322 -0.73035,1.065859 -0.7351,0.974604 0.24407,4.652765 0.7606,2.856518 0.52972,4.09858 -1.0139,5.453828 -1.29321,1.13548 -1.69366,1.13873 -2.68856,0.02191 -0.51466,-0.577496 -1.18674,-0.952161 -1.91783,-1.06907 l -1.1255,-0.179984 0,-1.832101 c 0,-1.4463 -0.12184,-1.942361 -0.57847,-2.355574 -0.61183,-0.553722 -1.49061,-0.433506 -1.4751,0.20183 0.005,0.207693 0.33582,0.908049 0.73511,1.556344 0.94179,1.528956 0.9172,2.08862 -0.18192,4.169339 -1.16771,2.21047 -1.05727,3.153463 0.82439,7.044126 l 1.4126,2.920804 0,3.688861 c 0,2.028885 -0.0984,5.505376 -0.21803,7.725512 l -0.21811,4.036627 1.54406,0.08903 1.5443,0.08907 0.23528,2.504832 c 0.12942,1.377641 0.16863,4.162461 0.0862,6.188469 -0.17543,4.350776 -0.90844,7.1343 -2.29471,8.713155 -1.545,1.75944 -2.0573,1.895417 -7.14231,1.895417 l -4.57667,0 -0.17272,-0.810394 c -0.0945,-0.445708 -0.49543,-1.890661 -0.88983,-3.211013 -1.10331,-3.694813 -0.94288,-8.944733 0.27326,-8.944733 0.61162,0 1.02073,-17.152488 0.48527,-20.333274 -0.72421,-4.300352 -0.74602,-3.990357 0.36089,-5.097366 2.18085,-2.180887 2.43092,-7.454729 0.43912,-9.258976 -0.36006,-0.326066 -1.2769,-0.950447 -2.03745,-1.387542 -1.64543,-0.945497 -1.89677,-1.577148 -2.09699,-5.267915 -0.1577,-2.91189 -0.60362,-3.741732 -2.0107,-3.741732 -1.21956,0 -1.7028,0.981703 -2.18914,4.44746 -0.41157,2.932571 -0.9173,4.261503 -1.74177,4.577957 -0.68428,0.262562 -3.49467,6.86866 -3.6334,8.540377 -0.10954,1.322688 -0.0401,1.568293 0.56313,1.990803 0.3784,0.265094 0.97371,0.481977 1.32309,0.481977 1.32047,0 1.37969,0.534392 0.5914,5.354614 -1.15166,7.043882 -1.42996,10.22164 -1.31355,14.99805 0.12377,5.069782 0.0743,4.978784 2.67152,4.985743 2.0065,0.005 2.03369,0.04032 2.91142,3.735701 0.50422,2.123359 0.57692,3.060347 0.40673,5.246935 -0.11387,1.464064 -0.32929,2.893985 -0.47855,3.177615 -0.25836,0.490609 -14.2739,0.515712 -288.02105,0.515712 l -287.7494127,0 0,-1.031404 0,-1.031412 287.0610727,0 287.06101,0 -0.1591,-3.167858 c -0.0873,-1.742318 -0.3257,-3.66514 -0.52935,-4.272927 -0.35556,-1.061233 -0.42382,-1.105251 -1.72067,-1.109408 -2.82521,-0.009 -3.44823,-1.00575 -3.75202,-6.002093 -0.20692,-3.403233 0.23371,-9.04292 1.18021,-15.108887 l 0.65084,-4.170938 -1.08466,-0.478579 c -1.48221,-0.653913 -2.15448,-2.100728 -1.94029,-4.175653 0.14564,-1.410252 0.53785,-2.50498 2.94605,-8.221202 0.4248,-1.008783 1.01265,-1.894603 1.36871,-2.062636 0.69962,-0.330291 1.04431,-1.428164 1.33731,-4.260431 0.38559,-3.727153 1.48911,-5.022303 4.27917,-5.022303 2.86327,0 4.1258,1.563885 4.1258,5.110689 0,2.897751 0.23691,3.729869 1.06193,3.729869 0.78901,0 2.86429,2.073198 3.792,3.78807 0.89265,1.649955 0.84745,6.426063 -0.0792,8.437662 -0.37254,0.808371 -0.93939,1.748542 -1.25931,2.089252 -0.53337,0.567557 -0.55236,0.753218 -0.22566,2.213806 0.40595,1.816447 0.4765,8.191389 0.19065,17.212621 l -0.19621,6.188391 -0.75788,0.384437 c -0.6707,0.340256 -0.75765,0.56447 -0.75765,1.9515 0,0.873264 0.3261,2.56627 0.73676,3.823919 0.40511,1.241271 0.73662,2.451701 0.73662,2.689785 0,0.355524 0.60189,0.432914 3.36619,0.432914 3.15231,0 3.42148,-0.04616 4.23375,-0.72989 0.47713,-0.401444 1.17634,-1.429181 1.55401,-2.283828 0.61741,-1.397331 0.69883,-2.095748 0.80819,-6.931886 l 0.12191,-5.378006 -1.49555,0 c -1.12624,0 -1.56133,-0.127318 -1.76198,-0.51569 -0.1619,-0.313109 -0.11209,-3.389015 0.12634,-7.829945 0.42206,-7.851457 0.34647,-8.627694 -1.06586,-10.956232 -1.95348,-3.220931 -2.32823,-6.44129 -1.03691,-8.911034 l 0.80604,-1.541408 -0.75937,-1.523825 c -1.65361,-3.318308 0.62769,-6.010038 3.81238,-4.498675 1.10585,0.524661 2.18793,2.402043 2.20378,3.822877 0.007,0.701541 0.21166,0.959522 1.08054,1.367323 0.58901,0.276465 1.1816,0.434398 1.31647,0.350966 0.40382,-0.249485 0.28132,-1.394572 -0.34386,-3.211101 -1.16311,-3.380745 -0.4487,-6.347983 1.87397,-7.783502 3.84064,-2.373581 6.82227,1.948402 9.34964,13.551874 1.15904,5.322658 1.0911,6.290299 -0.64363,9.159172 l -1.29739,2.145907 -0.14735,7.646772 c -0.1107,5.748567 -0.23885,7.677133 -0.5157,7.769164 -0.46516,0.154673 -0.50699,7.000819 -0.0588,9.759827 0.69449,4.280179 2.55831,5.756063 8.05355,6.37719 l 1.73196,0.195775 -0.20779,-1.130964 c -0.32468,-1.764834 -1.83668,-4.586408 -3.61091,-6.73718 -1.30004,-1.576257 -1.59024,-2.118215 -1.47033,-2.746413 0.0816,-0.430434 0.42162,-2.033299 0.75406,-3.561917 1.73352,-7.968648 1.54535,-20.86851 -0.40181,-27.53515 -0.67015,-2.294642 -0.51962,-5.474341 0.30223,-6.38442 0.31954,-0.353774 1.34347,-1.028458 2.27531,-1.499306 1.9015,-0.960684 1.98385,-1.199052 1.24943,-3.620262 -0.24124,-0.795624 -0.43889,-1.82066 -0.43889,-2.277834 0,-1.26296 0.84548,-3.107631 1.67274,-3.649731 0.96711,-0.633605 3.07529,-0.61999 4.06164,0.02639 1.65828,1.08663 2.30673,4.023196 1.52474,6.905892 -0.24186,0.891421 -0.33319,1.729876 -0.20329,1.863237 0.36175,0.371077 2.37005,-0.273594 3.9257,-1.260119 l 1.3953,-0.884822 0,-4.151463 c 0,-2.298149 0.13612,-4.4059014 0.30507,-4.7214437 0.2562,-0.4788419 0.62955,-0.5699903 2.33491,-0.5699903 1.75041,0 2.15361,0.1043096 2.93081,0.7582263 1.27702,1.0745437 1.66462,2.7039197 1.22075,5.1330977 -0.34452,1.886496 -0.33885,1.922173 0.41224,2.5684 0.41929,0.36042 1.32347,0.799605 2.00974,0.975972 3.17633,0.816324 3.58677,1.035717 4.28614,2.292109 0.66489,1.19444 2.39317,7.522338 2.40653,8.811818 0.004,0.356614 -0.19089,0.758988 -0.4324,0.894144 -0.37674,0.210751 -0.39274,0.622013 -0.11466,2.887821 0.40188,3.274205 0.0216,8.201211 -1.20772,15.669119 -1.37858,8.370256 -1.77455,11.94162 -1.77455,15.997142 0,2.20507 -0.12329,3.874551 -0.29364,3.979862 -0.18505,0.114262 -0.12764,0.502697 0.15491,1.0488 l 0.44834,0.867317 4.11077,0 4.11066,0 -0.16901,-0.957722 c -0.0925,-0.526746 -0.55355,-2.915748 -1.02402,-5.30888 -0.47024,-2.393135 -0.85507,-5.239648 -0.85507,-6.325605 0,-1.956748 -0.0121,-1.987058 -1.38553,-3.381189 -1.30645,-1.326357 -1.39237,-1.512217 -1.50342,-3.253276 -0.0678,-1.076253 0.1416,-3.382394 0.50333,-5.52846 0.91585,-5.434665 2.14586,-7.628408 5.26759,-9.395542 0.29196,-0.165124 0.20847,-0.595988 -0.36809,-1.899693 -1.04793,-2.369386 -0.99828,-3.849236 0.16596,-4.936775 0.98482,-0.919843 3.30259,-1.74217 4.91068,-1.74217 0.71306,0 1.24823,0.247583 1.86218,0.861383 0.99106,0.991111 1.07632,1.868915 0.44326,4.560262 l -0.40899,1.738092 1.89553,2.221626 c 2.83482,3.322363 4.32673,6.723196 3.82549,8.720353 -0.10324,0.411049 -0.60462,1.222312 -1.11443,1.802852 -1.26939,1.445641 -1.50668,3.163014 -1.11045,8.03246 l 0.31905,3.920196 -0.93267,1.453625 c -0.94372,1.470803 -1.08985,2.169686 -1.58367,7.576684 l -0.16797,1.841779 2.45279,0 c 2.87277,0 2.77999,0.09913 3.64154,-3.894079 0.88253,-4.090607 0.64753,-20.845379 -0.3991,-28.447573 -0.1653,-1.200992 -0.21445,-1.252428 -1.19973,-1.252428 -1.42266,0 -2.86355,-1.458716 -3.13559,-3.174656 -0.2812,-1.775138 0.27015,-4.80537 1.34957,-7.415606 0.79392,-1.92034 1.28264,-2.581994 3.53306,-4.784532 l 2.6118,-2.555994 -0.35554,-1.929082 c -0.46689,-2.533936 -0.0659,-3.969997 1.42422,-5.10693 0.88576,-0.67563 1.36832,-0.818129 2.7706,-0.818129 1.47788,0 1.81539,0.112438 2.60332,0.867313 1.09578,1.049813 1.48705,2.336353 1.48926,4.896395 0.003,2.192829 0.1951,2.536379 2.06437,3.669097 3.75603,2.276015 6.18852,6.456354 6.18852,10.63546 0,2.388846 -0.78419,3.466705 -2.5395,3.490804 l -1.14415,0.01585 0,9.724613 c 0,9.931931 -0.20091,12.889324 -1.37115,20.313683 -0.55502,3.521957 -0.56526,3.885542 -0.13469,4.788642 l 0.46615,0.977285 27.41056,0 27.41044,0 0,1.031404 0,1.031403 -28.22433,0 -28.22418,0 -0.82311,-1.889273 -0.82291,-1.889256 0.60556,-3.636069 c 1.12909,-6.777296 1.57383,-12.433572 1.57149,-19.991112 0,-3.970883 -0.14736,-8.403603 -0.32491,-9.850524 -0.37661,-3.070624 -0.18064,-3.576079 1.26679,-3.270041 0.49545,0.104759 1.29871,0.215524 1.78489,0.246112 0.8794,0.05543 0.88375,0.04785 0.84577,-1.461358 -0.0413,-1.63867 -1.07727,-4.248077 -2.34764,-5.913698 -0.40799,-0.534863 -1.71136,-1.626711 -2.89622,-2.426302 -2.55821,-1.725458 -3.11765,-2.775183 -3.11765,-5.849018 0,-2.386125 -0.49463,-3.301134 -1.78465,-3.301134 -0.48252,0 -1.1365,0.268956 -1.47335,0.605917 -0.55782,0.557752 -0.58989,0.824846 -0.404,3.35831 0.23531,3.205707 0.24047,3.194542 -2.45297,5.431335 -2.05333,1.705244 -3.31978,3.656615 -4.20204,6.474775 -0.71088,2.270597 -0.74993,4.097843 -0.10792,5.014729 0.41571,0.59357 0.64118,0.658519 1.72264,0.496351 0.92226,-0.138271 1.33956,-0.0719 1.61179,0.256176 0.43344,0.522289 1.05335,7.095863 1.51301,16.044963 0.48564,9.457945 -0.2529,17.408499 -1.9159,20.624377 l -0.45392,0.877715 -3.90929,0.103578 c -2.14985,0.05691 -4.06457,0.05722 -4.25443,6.01e-4 -0.64039,-0.190591 -0.66768,-0.921138 -0.21457,-5.728256 0.40461,-4.295276 0.54046,-4.949484 1.31452,-6.32996 l 0.86284,-1.539611 -0.18917,-4.369079 c -0.22338,-5.160215 0.0909,-7.009291 1.40151,-8.246296 1.07556,-1.015008 1.09435,-1.971077 0.0785,-3.985432 -0.81195,-1.610172 -3.13948,-4.689315 -4.24462,-5.615046 -0.68043,-0.57012 -0.69555,-1.25715 -0.11518,-5.278492 0.19665,-1.363911 0.18213,-1.39977 -0.56712,-1.39977 -0.99005,0 -3.05219,0.82324 -3.23123,1.289873 -0.0755,0.198026 0.17358,1.082822 0.55471,1.966227 0.96785,2.243261 0.93567,3.651998 -0.10586,4.649417 -0.45265,0.433226 -1.23076,1.003401 -1.7289,1.267042 -1.43291,0.75829 -2.35621,3.028405 -3.04097,7.477142 -0.32439,2.107013 -0.59108,4.061593 -0.59276,4.343491 -0.003,0.281929 0.65988,1.244746 1.4703,2.139582 1.45969,1.611831 1.47338,1.64556 1.4781,3.613027 0.003,1.092294 0.27174,3.245781 0.5983,4.785487 0.52325,2.465581 1.75406,9.533061 1.7542,10.071947 1.2e-4,0.362497 -0.91902,1.127417 -1.27317,1.059528 -0.19115,-0.03672 -2.75058,-0.105894 -5.68804,-0.153844 z"
       id="path3710"
       inkscape:connector-curvature="0" />
    <flowRoot
       xml:space="preserve"
       id="flowRoot4499"
       style="font-size:22px;font-style:normal;font-weight:normal;line-height:125%;letter-spacing:0px;word-spacing:0px;fill:#2a87cf;fill-opacity:0.94117647;stroke:none;font-family:Sans"
       transform="translate(10,0)"><flowRegion
         id="flowRegion4501"><rect
           id="rect4503"
           width="541.33331"
           height="32.000004"
           x="17.333334"
           y="14"
           style="fill:#2a87cf;fill-opacity:0.94117647" /></flowRegion><flowPara
         id="flowPara4505">Assessment of IDP informal settlements in Iraq</flowPara></flowRoot>    <flowRoot
       xml:space="preserve"
       id="flowRoot4507"
       style="font-size:22px;font-style:normal;font-weight:normal;line-height:125%;letter-spacing:0px;word-spacing:0px;fill:#000000;fill-opacity:1;stroke:none;font-family:Sans"><flowRegion
         id="flowRegion4509"><rect
           id="rect4511"
           width="342.66666"
           height="22.666666"
           x="26.666666"
           y="48.666668" /></flowRegion><flowPara
         id="flowPara4513">CCCC</flowPara></flowRoot>    <flowRoot
       xml:space="preserve"
       id="flowRoot4515"
       style="font-size:22px;font-style:normal;font-weight:normal;line-height:125%;letter-spacing:0px;word-spacing:0px;fill:#2a87cf;fill-opacity:0.94117647;stroke:none;font-family:Sans"
       transform="translate(-6.6666667,-14.666667)"><flowRegion
         id="flowRegion4517"><rect
           id="rect4519"
           width="557.33331"
           height="21.333334"
           x="37.333332"
           y="58"
           style="fill:#2a87cf;fill-opacity:0.94117647" /></flowRegion><flowPara
         id="flowPara4521"
         style="font-size:12px;fill:#2a87cf;fill-opacity:0.94117647">CCCM cluster - Supporting Displaced Communities</flowPara></flowRoot>  </g>
</svg>
