<?xml version="1.0" encoding="UTF-8" standalone="no"?>
<svg xmlns:dc="http://purl.org/dc/elements/1.1/" xmlns:cc="http://creativecommons.org/ns#" xmlns:rdf="http://www.w3.org/1999/02/22-rdf-syntax-ns#" xmlns:svg="http://www.w3.org/2000/svg" xmlns="http://www.w3.org/2000/svg" xmlns:sodipodi="http://sodipodi.sourceforge.net/DTD/sodipodi-0.dtd" xmlns:inkscape="http://www.inkscape.org/namespaces/inkscape" version="1.1" x="0px" y="0px" viewBox="0 0 24 30" enable-background="new 0 0 24 24" xml:space="preserve" id="svg12" sodipodi:docname="girl.svg" inkscape:version="0.92.1 r15371"><metadata id="metadata18"><rdf:RDF><cc:Work rdf:about=""><dc:format>image/svg+xml</dc:format><dc:type rdf:resource="http://purl.org/dc/dcmitype/StillImage"/><dc:title/></cc:Work></rdf:RDF></metadata><defs id="defs16"/><sodipodi:namedview pagecolor="#ffffff" bordercolor="#666666" borderopacity="1" objecttolerance="10" gridtolerance="10" guidetolerance="10" inkscape:pageopacity="0" inkscape:pageshadow="2" inkscape:window-width="640" inkscape:window-height="480" id="namedview14" showgrid="false" inkscape:zoom="7.8666667" inkscape:cx="12" inkscape:cy="15" inkscape:window-x="0" inkscape:window-y="0" inkscape:window-maximized="0" inkscape:current-layer="svg12"/><path inkscape:connector-curvature="0" id="path2" d="m 19.208475,14.605085 -4,-4 c -0.2,-0.2 -0.4,-0.3 -0.7,-0.3 h -3.9 c -0.3,0 -0.6,0.1 -0.8000004,0.3 l -4,4 c -0.4,0.4 -0.4,1 0,1.4 0.2,0.2 0.4,0.3 0.7,0.3 0.3,0 0.5,-0.1 0.7,-0.3 l 3.3000004,-3.3 v 1.6 l -3.0000004,7 h 2 v 3 c 0,0.6 0.5000004,1 1.0000004,1 0.6,0 1,-0.5 1,-1 v -3 h 2 v 3 c 0,0.6 0.5,1 1,1 0.6,0 1,-0.5 1,-1 v -3 h 2 l -3,-7 v -1.6 l 3.3,3.3 c 0.2,0.2 0.5,0.3 0.7,0.3 0.3,0 0.5,-0.1 0.7,-0.3 0.4,-0.4 0.4,-1 0,-1.4 z"/><path inkscape:connector-curvature="0" id="path4" d="m 10.099497,7.8112287 c 0.390401,1.2322035 1.431469,2.0023306 2.472536,2.0023306 1.041069,0 2.082137,-0.7701271 2.472537,-2.0023306 0.260267,1.5402543 1.301335,2.3103813 2.732804,1.8483052 C 17.907508,7.6572034 16.736306,6.425 15.174704,6.8870763 c 0,0 0,0 0,-0.1540255 0,-1.6942796 -1.171202,-3.0805084 -2.602671,-3.0805084 -1.431468,0 -2.6026696,1.3862288 -2.6026696,3.0805084 0,0 0,0 0,0.1540255 C 8.407762,6.425 7.2365604,7.6572034 7.3666939,9.6595339 8.7981624,10.12161 9.9693634,9.351483 10.099497,7.8112287 Z" style="stroke-width:1.41576374"/><text x="0" y="39" fill="#000000" font-size="5px" font-weight="bold" font-family="'Helvetica Neue', Helvetica, Arial-Unicode, Arial, Sans-serif" id="text8">Created by Creative Stall</text>
<text x="0" y="44" fill="#000000" font-size="5px" font-weight="bold" font-family="'Helvetica Neue', Helvetica, Arial-Unicode, Arial, Sans-serif" id="text10">from the Noun Project</text>
</svg>