<?xml version="1.0" encoding="UTF-8" standalone="no"?>
<svg xmlns:dc="http://purl.org/dc/elements/1.1/" xmlns:cc="http://creativecommons.org/ns#" xmlns:rdf="http://www.w3.org/1999/02/22-rdf-syntax-ns#" xmlns:svg="http://www.w3.org/2000/svg" xmlns="http://www.w3.org/2000/svg" xmlns:sodipodi="http://sodipodi.sourceforge.net/DTD/sodipodi-0.dtd" xmlns:inkscape="http://www.inkscape.org/namespaces/inkscape" version="1.1" x="0px" y="0px" viewBox="0 0 100.016 296.48" style="enable-background:new 0 0 100.016 237.184;" xml:space="preserve" id="svg12" sodipodi:docname="man.svg" inkscape:version="0.92.1 r15371"><metadata id="metadata18"><rdf:RDF><cc:Work rdf:about=""><dc:format>image/svg+xml</dc:format><dc:type rdf:resource="http://purl.org/dc/dcmitype/StillImage"/><dc:title/></cc:Work></rdf:RDF></metadata><defs id="defs16"/><sodipodi:namedview pagecolor="#ffffff" bordercolor="#666666" borderopacity="1" objecttolerance="10" gridtolerance="10" guidetolerance="10" inkscape:pageopacity="0" inkscape:pageshadow="2" inkscape:window-width="640" inkscape:window-height="480" id="namedview14" showgrid="false" inkscape:zoom="0.79600645" inkscape:cx="50.007999" inkscape:cy="148.24001" inkscape:window-x="0" inkscape:window-y="0" inkscape:window-maximized="0" inkscape:current-layer="svg12"/><g id="g6" transform="translate(0,25.125425)"><path d="m 9.051,146.415 c 4.411,-0.258 7.775,-4.044 7.517,-8.454 C 16.179,131.311 16,125.252 16.002,119.739 15.966,95.528 19.495,81.925 22.963,74.824 V 224.82 c 0,6.83 5.537,12.363 12.363,12.363 6.828,0 12.365,-5.533 12.365,-12.363 v -90.272 h 4.635 v 90.272 c 0,6.83 5.537,12.363 12.363,12.363 6.828,0 12.365,-5.533 12.365,-12.363 V 74.864 c 0.592,1.216 1.19,2.611 1.78,4.238 2.82,7.813 5.191,20.631 5.181,40.639 0,5.515 -0.177,11.571 -0.566,18.222 -0.256,4.41 3.11,8.195 7.521,8.454 0.158,0.009 0.315,0.014 0.471,0.014 4.206,10e-4 7.733,-3.281 7.982,-7.534 0.403,-6.933 0.592,-13.299 0.592,-19.155 C 99.976,89.559 95.154,72.854 88.58,62.811 85.295,57.825 81.453,54.627 77.902,52.856 74.578,51.179 71.648,50.767 69.831,50.726 69.663,50.715 69.496,50.701 69.325,50.701 H 30.692 c -0.159,0 -0.313,0.014 -0.47,0.024 -1.815,0.036 -4.761,0.443 -8.11,2.131 C 16.734,55.523 10.936,61.357 6.879,71.696 2.772,82.074 0.014,97.081 0,119.739 c 0.002,5.856 0.189,12.225 0.596,19.158 0.248,4.251 3.775,7.532 7.98,7.532 0.158,0 0.316,-0.004 0.475,-0.014 z" id="path2" inkscape:connector-curvature="0"/><circle cx="50.009998" cy="22.5" r="22.5" id="circle4"/></g></svg>