<?xml version="1.0" encoding="UTF-8" standalone="no"?>
<!-- Created with Inkscape (http://www.inkscape.org/) -->

<svg
   xmlns:dc="http://purl.org/dc/elements/1.1/"
   xmlns:cc="http://creativecommons.org/ns#"
   xmlns:rdf="http://www.w3.org/1999/02/22-rdf-syntax-ns#"
   xmlns:svg="http://www.w3.org/2000/svg"
   xmlns="http://www.w3.org/2000/svg"
   xmlns:sodipodi="http://sodipodi.sourceforge.net/DTD/sodipodi-0.dtd"
   xmlns:inkscape="http://www.inkscape.org/namespaces/inkscape"
   width="7.0555563mm"
   height="7.0555563mm"
   viewBox="0 0 25.000002 25.000002"
   id="svg5905"
   version="1.1"
   inkscape:version="0.91 r13725"
   sodipodi:docname="sanitation.svg">
  <defs
     id="defs5907">
    <clipPath
       id="clipPath6503"
       clipPathUnits="userSpaceOnUse">
      <path
         inkscape:connector-curvature="0"
         id="path6505"
         d="m 0,841.89 595.275,0 L 595.275,0 0,0 0,841.89 Z" />
    </clipPath>
  </defs>
  <sodipodi:namedview
     id="base"
     pagecolor="#ffffff"
     bordercolor="#666666"
     borderopacity="1.0"
     inkscape:pageopacity="0.0"
     inkscape:pageshadow="2"
     inkscape:zoom="5.6"
     inkscape:cx="-17.176024"
     inkscape:cy="-13.802143"
     inkscape:document-units="px"
     inkscape:current-layer="layer1"
     showgrid="false"
     inkscape:window-width="1536"
     inkscape:window-height="801"
     inkscape:window-x="-8"
     inkscape:window-y="-8"
     inkscape:window-maximized="1"
     fit-margin-top="0"
     fit-margin-left="0"
     fit-margin-right="0"
     fit-margin-bottom="0" />
  <metadata
     id="metadata5910">
    <rdf:RDF>
      <cc:Work
         rdf:about="">
        <dc:format>image/svg+xml</dc:format>
        <dc:type
           rdf:resource="http://purl.org/dc/dcmitype/StillImage" />
        <dc:title></dc:title>
      </cc:Work>
    </rdf:RDF>
  </metadata>
  <g
     inkscape:label="Layer 1"
     inkscape:groupmode="layer"
     id="layer1"
     transform="translate(-472.21481,-286.29077)">
    <circle
       style="fill:#766aab;fill-opacity:1;stroke:none;stroke-width:0.2;stroke-miterlimit:10;stroke-dasharray:none;stroke-dashoffset:0;stroke-opacity:0.57254902"
       id="path4738"
       cx="484.71481"
       cy="298.79077"
       r="12.5" />
    <path
       inkscape:connector-curvature="0"
       id="path6595"
       style="fill:#ffffff;fill-opacity:1;fill-rule:nonzero;stroke:none"
       d="m 484.92455,308.31008 c -0.0389,0.19444 -0.0361,0.39722 0.0222,0.59305 0.0486,0.18334 0.14583,0.35417 0.28056,0.49584 0.45555,0.46111 1.19999,0.47222 1.66666,0.0237 l 2.30971,-2.25277 0.29723,0.30278 -2.3125,2.25416 c -0.63055,0.6125 -1.64444,0.59722 -2.26388,-0.0319 -0.21389,-0.21944 -0.33333,-0.49305 -0.39861,-0.78055 l -4.83471,0 c -0.65556,0 -1.19028,0.53194 -1.19028,1.1861 0,0.65973 0.53472,1.19028 1.19028,1.19028 l 8.37637,0 c 0.27222,0 0.52222,-0.107 0.72777,-0.27222 l 5.45138,-4.12638 2.96805,0 0,-4.04305 -0.025,0 0,-0.0389 -6.87499,0 -5.0611,4.93055 c -0.16111,0.15416 -0.27361,0.35 -0.32916,0.56944 m -0.41945,-7.84859 0,-1.56666 c 0,-0.99722 -0.90277,-1.85417 -2.0986,-1.85417 l -2.79166,0 -0.0153,-0.86805 c 0,-0.25417 -0.20416,-0.45555 -0.45555,-0.45555 l -1.09166,0 0,-0.55973 c 0.0931,-0.0583 0.17222,-0.12638 0.23888,-0.21527 l 2.32639,0 c 0.15416,0.20277 0.38611,0.33889 0.65555,0.33889 0.46389,0 0.84167,-0.37639 0.84167,-0.84167 0,-0.45833 -0.37778,-0.8375 -0.84167,-0.8375 -0.27916,0 -0.5125,0.14445 -0.66527,0.35556 l -2.30694,0 c -0.15278,-0.21111 -0.38611,-0.35556 -0.66528,-0.35556 -0.27917,0 -0.51389,0.14445 -0.66805,0.35556 l -2.54444,0 c -0.15139,-0.21111 -0.38889,-0.35556 -0.66389,-0.35556 -0.46528,0 -0.84305,0.37917 -0.84305,0.8375 0,0.46528 0.37777,0.84167 0.84305,0.84167 0.26944,0 0.5,-0.13612 0.65417,-0.33889 l 2.56666,0 c 0.0653,0.0902 0.14722,0.15972 0.24166,0.21666 l 0,0.55834 -1.15972,0 c -0.25,0 -0.45416,0.20138 -0.45416,0.45555 l 0,0.86805 -3.39305,0 0,2.71527 3.7736,0 c 0.37083,0.74306 0.86389,1.11111 1.60833,1.11111 0.7375,0 1.35417,-0.36805 1.72639,-1.11111 l 1.35416,0 c 0.40694,0 0.55694,0.26112 0.6,0.7625 -0.11806,0.0792 -0.20139,0.20972 -0.20139,0.36667 0,0.25278 0.20417,0.45139 0.45555,0.45139 l 2.81805,0 c 0.25278,0 0.45417,-0.19861 0.45417,-0.45139 0,-0.19722 -0.125,-0.35972 -0.29861,-0.42361 m -1.60555,1.14861 c 0.24861,0.49166 1.35972,3.08332 1.35972,3.45554 0,2.03194 -2.71666,2.03194 -2.71666,0 0,-0.37222 1.10972,-3.08888 1.35694,-3.45554" />
  </g>
</svg>
