<?xml version="1.0" encoding="UTF-8" standalone="no"?>
<!-- Created with Inkscape (http://www.inkscape.org/) -->

<svg
   xmlns:dc="http://purl.org/dc/elements/1.1/"
   xmlns:cc="http://creativecommons.org/ns#"
   xmlns:rdf="http://www.w3.org/1999/02/22-rdf-syntax-ns#"
   xmlns:svg="http://www.w3.org/2000/svg"
   xmlns="http://www.w3.org/2000/svg"
   xmlns:sodipodi="http://sodipodi.sourceforge.net/DTD/sodipodi-0.dtd"
   xmlns:inkscape="http://www.inkscape.org/namespaces/inkscape"
   width="7.0555553mm"
   height="7.0555553mm"
   viewBox="0 0 24.999999 24.999999"
   id="svg2"
   version="1.1"
   inkscape:version="0.91 r13725"
   sodipodi:docname="waste.svg">
  <defs
     id="defs4">
    <clipPath
       id="clipPath4186"
       clipPathUnits="userSpaceOnUse">
      <path
         inkscape:connector-curvature="0"
         id="path4188"
         d="m 0,841.89 595.275,0 L 595.275,0 0,0 0,841.89 Z" />
    </clipPath>
  </defs>
  <sodipodi:namedview
     id="base"
     pagecolor="#ffffff"
     bordercolor="#666666"
     borderopacity="1.0"
     inkscape:pageopacity="0.0"
     inkscape:pageshadow="2"
     inkscape:zoom="5.6"
     inkscape:cx="37.281288"
     inkscape:cy="1.0747933"
     inkscape:document-units="px"
     inkscape:current-layer="layer1"
     showgrid="false"
     fit-margin-top="0"
     fit-margin-left="0"
     fit-margin-right="0"
     fit-margin-bottom="0"
     inkscape:window-width="1536"
     inkscape:window-height="801"
     inkscape:window-x="-8"
     inkscape:window-y="-8"
     inkscape:window-maximized="1" />
  <metadata
     id="metadata7">
    <rdf:RDF>
      <cc:Work
         rdf:about="">
        <dc:format>image/svg+xml</dc:format>
        <dc:type
           rdf:resource="http://purl.org/dc/dcmitype/StillImage" />
        <dc:title></dc:title>
      </cc:Work>
    </rdf:RDF>
  </metadata>
  <g
     inkscape:label="Layer 1"
     inkscape:groupmode="layer"
     id="layer1"
     transform="translate(-317.35715,-254.32651)">
    <circle
       style="fill:#f04300;fill-opacity:0.57254902;stroke:none;stroke-width:0.2;stroke-miterlimit:10;stroke-dasharray:none;stroke-dashoffset:0;stroke-opacity:0.57254902"
       id="path4738"
       cx="329.85715"
       cy="266.82651"
       r="12.5" />
    <path
       inkscape:connector-curvature="0"
       id="path4282"
       style="fill:#ffffff;fill-opacity:1;fill-rule:nonzero;stroke:none"
       d="m 336.77184,271.35362 -0.29,-1.96875 1.2175,0.80625 0.8913,0.815 c 0,0 0.1925,1.045 0.1925,1.47 l -1.0075,0 c 0,0 -1.0038,-0.2175 -1.0038,-1.1225 m -2.4287,0.67 c 0,0 -0.5063,0.035 -1.0963,-0.555 l 0,-1.25125 1.0963,0 c 0,0 0.6662,1.13875 0,1.80625 m -0.6813,-4.5975 c -0.04,-0.04 -0.45,-0.37625 -0.4937,-0.405 -0.29,-0.18125 -0.6863,-0.11875 -1.0225,-0.18625 -0.33,-0.0663 -0.6375,-0.22125 -0.955,-0.29875 -0.3588,-0.0837 -0.805,-0.11 -1.1863,-0.0775 -0.4987,0.0437 -0.9175,0.285 -1.44,0.2725 0.3975,-0.20625 0.6588,-0.69125 1.0838,-0.84625 0.4275,-0.15625 1.0525,-0.47875 1.4475,-0.69 0.6425,-0.3375 1.875,0.0638 1.8362,-0.0512 0,0 1.0638,0.72 1.35,0.89 l 1.1225,1.045 c 0.1463,0.11625 -0.19,1.765 -0.19,1.765 l -0.7475,0.52375 -0.185,-0.74 -0.45,-0.30625 c -0.057,0 -0.044,-0.75875 -0.17,-0.895 m 3.8038,10.9825 c 0.21,0.2375 0.4225,0.67 0.6325,1.2975 0.026,0.0763 0.021,0.15875 -0.01,0.24375 -0.033,0.0862 -0.086,0.1725 -0.1563,0.25625 -0.071,0.0825 -0.1587,0.16125 -0.2612,0.23 -0.105,0.0662 -0.2125,0.1175 -0.325,0.15625 l -0.965,0.3225 c -0.039,-0.0913 -0.2188,-0.26875 -0.5438,-0.53625 -0.3075,-0.275 -0.4662,-0.41875 -0.4712,-0.43625 -0.074,-0.22125 -0.029,-0.52375 0.1337,-0.90625 0.1688,-0.40375 0.3663,-0.71375 0.6063,-0.9275 l 0.078,-0.0225 c 0.5087,-0.17125 0.935,-0.0637 1.2825,0.3225 m -2.08,-0.815 -0.5963,0.19875 c -0.2512,-0.0362 -0.44,-0.115 -0.5712,-0.23125 l 0.1787,-0.63875 0.6875,-0.23 0.3013,0.90125 z m 4.5087,0.33125 -0.5962,0.1975 c -0.2513,-0.0375 -0.4413,-0.11625 -0.5713,-0.2325 l 0.1788,-0.6375 0.6862,-0.2325 0.3025,0.905 z m -0.6,-1.9825 c -0.051,0.02 -0.245,0.1 -0.5837,0.2475 l -0.3,0.0163 -0.1738,-0.16375 c -0.1025,-0.105 -0.1662,-0.195 -0.195,-0.2775 -0.1,-0.305 -0.13,-0.61125 -0.086,-0.915 0.044,-0.305 0.1587,-0.48875 0.345,-0.55 0.1287,0.05 0.2587,0.0975 0.3875,0.1425 0.2662,0.0825 0.415,0.11625 0.445,0.1075 l -0.01,-0.0175 c 0.1637,-0.0538 0.2825,0.0425 0.3662,0.28625 0.073,0.215 0.088,0.43625 0.046,0.6675 -0.041,0.23 -0.1275,0.38375 -0.2463,0.45625 m -3.4312,-1.5825 -0.026,-0.8425 c 0.1075,-0.0925 0.2025,-0.15375 0.295,-0.18375 0.1763,-0.0587 0.3375,-0.0462 0.4963,0.03 0.1562,0.0787 0.2537,0.18 0.295,0.30125 0.051,0.1525 -0.029,0.35 -0.2438,0.5925 l -0.8162,0.1025 z m -1.3075,-0.55625 0.71,0.24125 c 0.064,0.0813 0.1025,0.15125 0.1225,0.2125 0.055,0.17375 -0.01,0.295 -0.2038,0.36 l -0.5337,0.17875 -0.3563,-0.41 c -0.071,-0.2025 0.019,-0.3975 0.2613,-0.5825 m 2.5237,1.45 c 0.064,0.08 0.1025,0.1525 0.1225,0.2125 0.059,0.1725 -0.01,0.295 -0.2025,0.35875 l -0.5375,0.17875 -0.3562,-0.40875 c -0.069,-0.20375 0.019,-0.39625 0.2637,-0.5825 l 0.71,0.24125 z m -10.9075,-12.14375 c 0.088,-0.12 0.2138,-0.2 0.3638,-0.22375 0.305,-0.0512 0.5875,0.15625 0.6362,0.4575 l -1.0962,0.18125 c -0.024,-0.1475 0.01,-0.29375 0.096,-0.415 m 6.315,1.4775 c -0.105,-0.61625 -0.9937,-1.96125 -4.0325,-1.4575 l -0.5762,0.0962 c -0.056,-0.335 -0.2375,-0.6275 -0.5125,-0.825 -0.2788,-0.1975 -0.6088,-0.2725 -0.9475,-0.22 -0.6913,0.115 -1.16,0.76875 -1.0475,1.46125 l -0.5588,0.0937 c -3.0425,0.50625 -3.4475,2.0675 -3.345,2.6825 l 11.02,-1.83125 z m -8.75,3.9825 c 0.1838,-0.02 0.3613,0.14625 0.3713,0.3425 l 0.4275,9.96375 c 0.01,0.19625 -0.1438,0.36375 -0.3425,0.37125 l -0.014,0 c -0.1912,0 -0.35,-0.15125 -0.3562,-0.34125 l -0.4275,-9.96375 c -0.01,-0.19625 0.1462,-0.36375 0.3412,-0.3725 m 2.9375,0.3625 c 0,-0.19625 0.1613,-0.35625 0.3563,-0.35625 0.1975,0 0.3562,0.16 0.3562,0.35625 l 0,9.96375 c 0,0.19625 -0.1587,0.35625 -0.3562,0.35625 -0.195,0 -0.3563,-0.16 -0.3563,-0.35625 l 0,-9.96375 z m 3.2788,-0.015 c 0.01,-0.19625 0.1562,-0.3675 0.3737,-0.34125 0.195,0.009 0.3488,0.17625 0.3388,0.37125 l -0.425,9.965 c -0.01,0.19 -0.165,0.34 -0.3563,0.34 l -0.016,0 c -0.1963,-0.007 -0.35,-0.17375 -0.34,-0.37125 l 0.425,-9.96375 z m -7.5363,10.475 c 0,0.725 2.065,1.31125 4.6138,1.31125 2.5487,0 4.6162,-0.58625 4.6162,-1.31125 l 0.9625,-12.13875 -11.1575,0 0.965,12.13875 z" />
  </g>
</svg>
